<svg width="351" height="200" viewBox="0 0 351 200" fill="none" xmlns="http://www.w3.org/2000/svg">
<g clip-path="url(#clip0_161_7584)">
<g clip-path="url(#clip1_161_7584)">
<rect width="351" height="200" rx="5" fill="#B43F28"/>
<path d="M14.1489 221.75C72.9971 144.725 220.804 19.5897 363.351 94.7066" stroke="white" stroke-opacity="0.7" stroke-width="22"/>
<path d="M14.1489 221.75C72.9971 144.725 225.457 10.034 364.511 87.4681" stroke="#A72B1B" stroke-width="22"/>
<path d="M20.345 22.9V32H22.139V22.9H20.345ZM28.3395 32.182C30.0165 32.182 31.4855 31.337 32.2525 30.037L30.7055 29.14C30.2765 29.933 29.3795 30.427 28.3395 30.427C26.5585 30.427 25.3885 29.192 25.3885 27.45C25.3885 25.695 26.5585 24.46 28.3395 24.46C29.3795 24.46 30.2635 24.954 30.7055 25.76L32.2525 24.863C31.4725 23.563 30.0035 22.718 28.3395 22.718C25.5835 22.718 23.6075 24.785 23.6075 27.45C23.6075 30.102 25.5835 32.182 28.3395 32.182ZM33.5546 22.9V32H35.3486V22.9H33.5546ZM41.5491 32.182C43.2261 32.182 44.6951 31.337 45.4621 30.037L43.9151 29.14C43.4861 29.933 42.5891 30.427 41.5491 30.427C39.7681 30.427 38.5981 29.192 38.5981 27.45C38.5981 25.695 39.7681 24.46 41.5491 24.46C42.5891 24.46 43.4731 24.954 43.9151 25.76L45.4621 24.863C44.6821 23.563 43.2131 22.718 41.5491 22.718C38.7931 22.718 36.8171 24.785 36.8171 27.45C36.8171 30.102 38.7931 32.182 41.5491 32.182ZM46.7641 22.9V32H48.5581V22.9H46.7641ZM59.7427 32H61.6927L58.4947 22.9H56.2717L53.0867 32H55.0237L55.5697 30.362H59.1967L59.7427 32ZM56.1417 28.685L57.3897 24.967L58.6377 28.685H56.1417ZM71.6813 22.9H69.8353L67.2353 27.203L64.6223 22.9H62.7763V32H64.5703V26.111L67.1313 30.323H67.3393L69.9003 26.098V32H71.6813V22.9ZM79.4268 32H81.3768L78.1788 22.9H75.9558L72.7708 32H74.7078L75.2538 30.362H78.8808L79.4268 32ZM75.8258 28.685L77.0738 24.967L78.3218 28.685H75.8258ZM89.3894 32L86.5944 27.32L89.2334 22.9H87.2054L85.5804 25.63L83.9554 22.9H81.9274L84.5664 27.333L81.7844 32H83.8124L85.5804 29.036L87.3484 32H89.3894ZM94.4029 32.182C97.0289 32.182 99.1349 30.102 99.1349 27.45C99.1349 24.785 97.0289 22.718 94.4029 22.718C91.7769 22.718 89.6839 24.785 89.6839 27.45C89.6839 30.102 91.7769 32.182 94.4029 32.182ZM94.4029 30.427C92.7519 30.427 91.4649 29.192 91.4649 27.45C91.4649 25.695 92.7519 24.46 94.4029 24.46C96.0539 24.46 97.3409 25.695 97.3409 27.45C97.3409 29.192 96.0539 30.427 94.4029 30.427ZM105.861 22.9V28.451L101.961 22.9H100.596V32H102.39V26.436L106.29 32H107.655V22.9H105.861ZM116.386 22.9H112.993V32H114.787V29.01H116.386C118.141 29.01 119.493 27.658 119.493 25.955C119.493 24.252 118.141 22.9 116.386 22.9ZM116.386 27.333H114.787V24.577H116.386C117.153 24.577 117.712 25.162 117.712 25.955C117.712 26.735 117.153 27.333 116.386 27.333ZM125.784 32H127.734L124.536 22.9H122.313L119.128 32H121.065L121.611 30.362H125.238L125.784 32ZM122.183 28.685L123.431 24.967L124.679 28.685H122.183ZM134.839 22.9H132.811L130.835 26.696L128.859 22.9H126.831L129.938 28.451V32H131.719V28.451L134.839 22.9Z" fill="white"/>
<g clip-path="url(#clip2_161_7584)">
<path d="M35.5447 42.5117C33.7969 42.5117 32.2351 43.4176 32.2351 45.0913C32.2351 47.0107 35.0051 47.1433 35.0051 48.1076C35.0051 48.5136 34.5398 48.877 33.7451 48.877C32.6173 48.877 31.7744 48.3692 31.7744 48.3692L31.4137 50.0581C31.4137 50.0581 32.3847 50.4871 33.674 50.4871C35.5848 50.4871 37.0884 49.5367 37.0884 47.8344C37.0884 45.8062 34.3068 45.6776 34.3068 44.7826C34.3068 44.4645 34.6888 44.116 35.4812 44.116C36.3753 44.116 37.1047 44.4854 37.1047 44.4854L37.4577 42.8541C37.4577 42.8541 36.664 42.5117 35.5447 42.5117ZM19.5545 42.6348L19.5122 42.8811C19.5122 42.8811 20.2475 43.0156 20.9097 43.2841C21.7624 43.5919 21.8232 43.7711 21.9668 44.3276L23.5316 50.3601H25.6293L28.861 42.6348H26.7681L24.6916 47.8873L23.8442 43.4351C23.7665 42.9255 23.3729 42.6348 22.8911 42.6348H19.5545ZM29.7026 42.6348L28.0608 50.3601H30.0566L31.6926 42.6348H29.7026ZM40.8337 42.6348C40.3524 42.6348 40.0975 42.8925 39.9104 43.3427L36.9864 50.3601H39.0794L39.4843 49.1906H42.034L42.2803 50.3601H44.127L42.5159 42.6348H40.8337ZM41.1059 44.722L41.7263 47.6209H40.0642L41.1059 44.722Z" fill="white"/>
</g>
<path d="M57.8392 50H53.0592V48.93H54.9592V43.97H54.8792L53.3592 45.77L52.5392 45.08L54.2592 43.02H56.2692V48.93H57.8392V50ZM65.5953 48.89V50H60.7553V48.78L62.9453 46.86C63.3186 46.54 63.5919 46.2467 63.7653 45.98C63.9386 45.7133 64.0253 45.4267 64.0253 45.12V44.99C64.0253 44.6833 63.9253 44.45 63.7253 44.29C63.5253 44.1233 63.2819 44.04 62.9953 44.04C62.6419 44.04 62.3686 44.1433 62.1753 44.35C61.9886 44.55 61.8553 44.7933 61.7753 45.08L60.6353 44.64C60.7353 44.3267 60.8886 44.04 61.0953 43.78C61.3019 43.52 61.5719 43.31 61.9053 43.15C62.2386 42.9833 62.6386 42.9 63.1053 42.9C63.5986 42.9 64.0153 42.99 64.3553 43.17C64.7019 43.35 64.9653 43.5967 65.1453 43.91C65.3253 44.2167 65.4153 44.5733 65.4153 44.98C65.4153 45.3667 65.3353 45.7133 65.1753 46.02C65.0219 46.3267 64.8086 46.6133 64.5353 46.88C64.2686 47.1467 63.9753 47.4133 63.6553 47.68L62.1853 48.89H65.5953ZM70.0613 45.84H70.7513C71.1513 45.84 71.4447 45.7567 71.6313 45.59C71.8247 45.4233 71.9213 45.2167 71.9213 44.97V44.9C71.9213 44.6133 71.828 44.39 71.6413 44.23C71.4547 44.0633 71.2047 43.98 70.8913 43.98C70.5847 43.98 70.3113 44.0533 70.0713 44.2C69.8313 44.3467 69.628 44.5533 69.4613 44.82L68.6213 44.06C68.7813 43.84 68.9647 43.6433 69.1713 43.47C69.3847 43.2967 69.6313 43.16 69.9113 43.06C70.198 42.9533 70.538 42.9 70.9313 42.9C71.398 42.9 71.808 42.9767 72.1613 43.13C72.5213 43.2767 72.8013 43.4867 73.0013 43.76C73.2013 44.0267 73.3013 44.3467 73.3013 44.72C73.3013 45.1667 73.168 45.5267 72.9013 45.8C72.6413 46.0667 72.328 46.2367 71.9613 46.31V46.37C72.2347 46.4167 72.4813 46.5133 72.7013 46.66C72.9213 46.8 73.0947 46.9867 73.2213 47.22C73.3547 47.4533 73.4213 47.7367 73.4213 48.07C73.4213 48.4767 73.3113 48.8367 73.0913 49.15C72.878 49.4567 72.578 49.6967 72.1913 49.87C71.8113 50.0367 71.3647 50.12 70.8513 50.12C70.398 50.12 70.0147 50.06 69.7013 49.94C69.388 49.82 69.1247 49.66 68.9113 49.46C68.698 49.26 68.518 49.0467 68.3713 48.82L69.3413 48.08C69.5013 48.36 69.6947 48.59 69.9213 48.77C70.1547 48.95 70.4647 49.04 70.8513 49.04C71.238 49.04 71.5347 48.9467 71.7413 48.76C71.948 48.5667 72.0513 48.31 72.0513 47.99V47.92C72.0513 47.6 71.938 47.3567 71.7113 47.19C71.4847 47.0233 71.1647 46.94 70.7513 46.94H70.0613V45.84ZM80.8574 50H79.6074V48.65H76.4474V47.53L79.2274 43.02H80.8574V47.63H81.7674V48.65H80.8574V50ZM79.5274 44.3L77.5274 47.63H79.6074V44.3H79.5274ZM93.6368 43.02V44.16H90.4968L90.3368 46.5H90.4068C90.5068 46.3 90.6168 46.1267 90.7368 45.98C90.8635 45.8267 91.0168 45.7067 91.1968 45.62C91.3835 45.5333 91.6135 45.49 91.8868 45.49C92.2868 45.49 92.6468 45.58 92.9668 45.76C93.2868 45.9333 93.5402 46.1833 93.7268 46.51C93.9202 46.8367 94.0168 47.2333 94.0168 47.7C94.0168 48.1667 93.9168 48.5833 93.7168 48.95C93.5168 49.31 93.2235 49.5967 92.8368 49.81C92.4501 50.0167 91.9835 50.12 91.4368 50.12C91.0101 50.12 90.6435 50.06 90.3368 49.94C90.0301 49.82 89.7701 49.66 89.5568 49.46C89.3501 49.26 89.1768 49.0467 89.0368 48.82L89.9968 48.08C90.1568 48.3467 90.3435 48.5733 90.5568 48.76C90.7701 48.9467 91.0668 49.04 91.4468 49.04C91.8401 49.04 92.1368 48.93 92.3368 48.71C92.5435 48.49 92.6468 48.19 92.6468 47.81V47.73C92.6468 47.37 92.5435 47.0867 92.3368 46.88C92.1301 46.6733 91.8435 46.57 91.4768 46.57C91.1901 46.57 90.9568 46.6267 90.7768 46.74C90.5968 46.8467 90.4535 46.9633 90.3468 47.09L89.2668 46.94L89.5268 43.02H93.6368ZM99.5129 50.12C98.9796 50.12 98.5229 50.01 98.1429 49.79C97.7696 49.5633 97.4796 49.2433 97.2729 48.83C97.0729 48.4167 96.9729 47.9333 96.9729 47.38C96.9729 46.8733 97.0462 46.4033 97.1929 45.97C97.3462 45.53 97.5429 45.1233 97.7829 44.75C98.0296 44.3767 98.2996 44.0433 98.5929 43.75C98.8862 43.4567 99.1796 43.2133 99.4729 43.02H101.253C100.706 43.4133 100.233 43.79 99.8329 44.15C99.4396 44.51 99.1162 44.8833 98.8629 45.27C98.6162 45.65 98.4429 46.08 98.3429 46.56L98.4229 46.58C98.5096 46.4 98.6196 46.2333 98.7529 46.08C98.8862 45.92 99.0529 45.7933 99.2529 45.7C99.4596 45.6 99.7096 45.55 100.003 45.55C100.39 45.55 100.736 45.6367 101.043 45.81C101.356 45.9833 101.6 46.2333 101.773 46.56C101.953 46.8867 102.043 47.27 102.043 47.71C102.043 48.1767 101.936 48.5933 101.723 48.96C101.516 49.32 101.223 49.6033 100.843 49.81C100.47 50.0167 100.026 50.12 99.5129 50.12ZM99.5129 49.08C99.7596 49.08 99.9696 49.0333 100.143 48.94C100.316 48.8467 100.45 48.7133 100.543 48.54C100.643 48.3667 100.693 48.1533 100.693 47.9V47.75C100.693 47.4967 100.643 47.2833 100.543 47.11C100.45 46.93 100.316 46.7967 100.143 46.71C99.9696 46.6167 99.7596 46.57 99.5129 46.57C99.2662 46.57 99.0562 46.6167 98.8829 46.71C98.7096 46.7967 98.5729 46.93 98.4729 47.11C98.3796 47.2833 98.3329 47.4967 98.3329 47.75V47.9C98.3329 48.1533 98.3796 48.3667 98.4729 48.54C98.5729 48.7133 98.7096 48.8467 98.8829 48.94C99.0562 49.0333 99.2662 49.08 99.5129 49.08ZM104.659 50L106.919 46.41L104.759 43.02H106.299L107.779 45.5H107.809L109.309 43.02H110.749L108.569 46.42L110.849 50H109.309L107.709 47.32H107.679L106.099 50H104.659ZM113.212 50L115.472 46.41L113.312 43.02H114.852L116.332 45.5H116.362L117.862 43.02H119.302L117.122 46.42L119.402 50H117.862L116.262 47.32H116.232L114.652 50H113.212ZM126.128 50L128.388 46.41L126.228 43.02H127.768L129.248 45.5H129.278L130.778 43.02H132.218L130.038 46.42L132.318 50H130.778L129.178 47.32H129.148L127.568 50H126.128ZM134.68 50L136.94 46.41L134.78 43.02H136.32L137.8 45.5H137.83L139.33 43.02H140.77L138.59 46.42L140.87 50H139.33L137.73 47.32H137.7L136.12 50H134.68ZM143.233 50L145.493 46.41L143.333 43.02H144.873L146.353 45.5H146.383L147.883 43.02H149.323L147.143 46.42L149.423 50H147.883L146.283 47.32H146.253L144.673 50H143.233ZM151.786 50L154.046 46.41L151.886 43.02H153.426L154.906 45.5H154.936L156.436 43.02H157.876L155.696 46.42L157.976 50H156.436L154.836 47.32H154.806L153.226 50H151.786ZM167.552 50.12C167.019 50.12 166.562 50.01 166.182 49.79C165.809 49.5633 165.519 49.2433 165.312 48.83C165.112 48.4167 165.012 47.9333 165.012 47.38C165.012 46.8733 165.085 46.4033 165.232 45.97C165.385 45.53 165.582 45.1233 165.822 44.75C166.069 44.3767 166.339 44.0433 166.632 43.75C166.925 43.4567 167.219 43.2133 167.512 43.02H169.292C168.745 43.4133 168.272 43.79 167.872 44.15C167.479 44.51 167.155 44.8833 166.902 45.27C166.655 45.65 166.482 46.08 166.382 46.56L166.462 46.58C166.549 46.4 166.659 46.2333 166.792 46.08C166.925 45.92 167.092 45.7933 167.292 45.7C167.499 45.6 167.749 45.55 168.042 45.55C168.429 45.55 168.775 45.6367 169.082 45.81C169.395 45.9833 169.639 46.2333 169.812 46.56C169.992 46.8867 170.082 47.27 170.082 47.71C170.082 48.1767 169.975 48.5933 169.762 48.96C169.555 49.32 169.262 49.6033 168.882 49.81C168.509 50.0167 168.065 50.12 167.552 50.12ZM167.552 49.08C167.799 49.08 168.009 49.0333 168.182 48.94C168.355 48.8467 168.489 48.7133 168.582 48.54C168.682 48.3667 168.732 48.1533 168.732 47.9V47.75C168.732 47.4967 168.682 47.2833 168.582 47.11C168.489 46.93 168.355 46.7967 168.182 46.71C168.009 46.6167 167.799 46.57 167.552 46.57C167.305 46.57 167.095 46.6167 166.922 46.71C166.749 46.7967 166.612 46.93 166.512 47.11C166.419 47.2833 166.372 47.4967 166.372 47.75V47.9C166.372 48.1533 166.419 48.3667 166.512 48.54C166.612 48.7133 166.749 48.8467 166.922 48.94C167.095 49.0333 167.305 49.08 167.552 49.08ZM175.588 50H174.208L176.638 44.09H174.228V45.37H173.108V43.02H177.948V44.15L175.588 50ZM183.544 50.12C183.011 50.12 182.554 50.01 182.174 49.79C181.801 49.5633 181.511 49.2433 181.304 48.83C181.104 48.4167 181.004 47.9333 181.004 47.38C181.004 46.8733 181.077 46.4033 181.224 45.97C181.377 45.53 181.574 45.1233 181.814 44.75C182.061 44.3767 182.331 44.0433 182.624 43.75C182.917 43.4567 183.211 43.2133 183.504 43.02H185.284C184.737 43.4133 184.264 43.79 183.864 44.15C183.471 44.51 183.147 44.8833 182.894 45.27C182.647 45.65 182.474 46.08 182.374 46.56L182.454 46.58C182.541 46.4 182.651 46.2333 182.784 46.08C182.917 45.92 183.084 45.7933 183.284 45.7C183.491 45.6 183.741 45.55 184.034 45.55C184.421 45.55 184.767 45.6367 185.074 45.81C185.387 45.9833 185.631 46.2333 185.804 46.56C185.984 46.8867 186.074 47.27 186.074 47.71C186.074 48.1767 185.967 48.5933 185.754 48.96C185.547 49.32 185.254 49.6033 184.874 49.81C184.501 50.0167 184.057 50.12 183.544 50.12ZM183.544 49.08C183.791 49.08 184.001 49.0333 184.174 48.94C184.347 48.8467 184.481 48.7133 184.574 48.54C184.674 48.3667 184.724 48.1533 184.724 47.9V47.75C184.724 47.4967 184.674 47.2833 184.574 47.11C184.481 46.93 184.347 46.7967 184.174 46.71C184.001 46.6167 183.791 46.57 183.544 46.57C183.297 46.57 183.087 46.6167 182.914 46.71C182.741 46.7967 182.604 46.93 182.504 47.11C182.411 47.2833 182.364 47.4967 182.364 47.75V47.9C182.364 48.1533 182.411 48.3667 182.504 48.54C182.604 48.7133 182.741 48.8467 182.914 48.94C183.087 49.0333 183.297 49.08 183.544 49.08ZM191.58 50H190.2L192.63 44.09H190.22V45.37H189.1V43.02H193.94V44.15L191.58 50Z" fill="white"/>
<path d="M264.982 35.8404H267.71L269.848 27.8711H267.149L264.982 35.8404Z" fill="white"/>
<path d="M278.967 35.8385H281.695L283.833 27.8691H281.106L278.967 35.8385Z" fill="white"/>
<path d="M292.977 35.8385H295.678L297.791 27.8691H295.063L292.977 35.8385Z" fill="white"/>
<path d="M276.427 30.5981H279.154C279.529 28.8072 278.379 27.8984 275.705 27.8984C272.603 27.8984 270.518 29.422 269.796 32.0161C269.18 34.4217 270.438 35.8665 273.351 35.8665C276.293 35.8665 278.03 34.9577 278.753 32.8982H276.026C275.625 33.807 274.93 34.2614 273.968 34.2614C272.657 34.2614 272.122 33.4595 272.523 31.9359C272.951 30.3575 273.968 29.4755 275.277 29.4755C276.133 29.4755 276.507 29.8497 276.427 30.5981Z" fill="white"/>
<path d="M290.438 30.5981H293.166C293.54 28.8072 292.362 27.8984 289.688 27.8984C286.613 27.8984 284.501 29.422 283.806 32.0161C283.165 34.4217 284.421 35.8665 287.336 35.8665C290.251 35.8665 291.988 34.9577 292.737 32.8982H290.01C289.635 33.807 288.913 34.2614 287.951 34.2614C286.641 34.2614 286.106 33.4595 286.533 31.9359C286.935 30.3575 287.951 29.4755 289.26 29.4755C290.117 29.4755 290.518 29.8497 290.438 30.5981Z" fill="white"/>
<path fill-rule="evenodd" clip-rule="evenodd" d="M254.474 23.4592C258.11 19.8494 262.522 18.9126 264.287 21.373C266.053 23.8334 264.501 28.8064 260.865 32.4162C260.139 33.1421 259.382 33.7603 258.622 34.2652C258.648 34.246 258.673 34.2268 258.699 34.2073C256.547 34.9897 259.002 28.1661 259.622 26.4441C259.679 26.2835 259.721 26.1672 259.742 26.1057C260.089 25.1167 259.074 24.7692 258.163 25.0098C257.362 25.2771 255.09 26.9356 254.502 27.6306C253.939 28.3255 254.42 28.4592 254.794 28.2454C255.544 27.8177 256.185 27.7362 256.48 28.1117C256.667 28.3523 256.64 29.4215 256.292 30.945C256.052 31.9086 255.785 32.9243 255.303 34.0202C254.822 35.0894 254.233 35.8926 253.511 35.8659C253.53 35.8689 253.55 35.8718 253.569 35.8745C252.513 35.7803 251.623 35.3315 251.024 34.5011C249.287 32.0153 250.839 27.0677 254.474 23.4592ZM261.479 22.0148V21.9346C261.479 21.7207 261.399 21.5604 261.265 21.4267C260.864 20.999 259.902 21.2396 259.154 21.9613C258.432 22.7097 258.163 23.6466 258.618 24.0742C259.02 24.4739 259.982 24.2066 260.704 23.5116C261.185 23.0305 261.453 22.4692 261.479 22.0148Z" fill="white"/>
<path d="M301.882 34.5815L302.497 32.2828H303.994V31.0532H302.844L303.379 29.1006H303.994V27.8965H301.961L299.849 35.8658H303.994V34.5815H301.882ZM303.994 32.2828H304.288C305.652 32.2828 306.294 32.5233 306.026 33.4589C305.812 34.2875 305.144 34.5815 303.994 34.5815V35.8658C305.117 35.8658 305.946 35.7589 306.775 35.1963C307.336 34.8221 307.738 34.2607 307.899 33.6192C308.191 32.5233 307.71 31.7736 306.454 31.6145C307.63 31.4007 308.38 30.7846 308.619 29.8223C308.833 29.1006 308.646 28.5661 308.138 28.2186C307.71 27.9246 306.989 27.8965 306.026 27.8965H303.994V29.1006H305.037C306.32 29.1006 306.908 29.261 306.721 30.0629C306.481 30.838 305.786 31.0532 304.476 31.0532H303.994V32.2828Z" fill="white"/>
<path d="M311.481 30.2782V31.2658C311.267 31.3741 311.08 31.5612 311 31.8285H309.396C309.662 31.0533 310.385 30.5174 311.481 30.2782ZM311.481 34.9571C311.294 35.0106 311.08 35.0373 310.866 35.0373C310.144 35.0373 309.824 34.742 309.984 34.2074C310.144 33.5926 310.625 33.3788 311.481 33.2986V32.3631C309.635 32.4967 308.619 32.9778 308.299 34.1807C308.005 35.2766 308.701 35.9996 310.144 35.9996C310.626 35.9996 311.08 35.9194 311.481 35.759V34.9571ZM313.032 33.2986L313.006 33.3788C312.792 34.2074 312.229 34.77 311.481 34.9571V35.759C311.882 35.5973 312.229 35.3848 312.55 35.0908L312.416 35.8659H314.021C314.102 35.4904 314.182 35.0627 314.289 34.6351L314.904 32.3898C314.957 32.2027 314.984 32.0156 314.984 31.8285V31.5612C314.93 30.651 314.155 30.1699 312.712 30.1699C312.256 30.1699 311.855 30.2234 311.481 30.2782V31.2658C311.721 31.1335 312.015 31.0801 312.391 31.0801C313.218 31.0801 313.54 31.4529 313.298 32.2561L313.273 32.3363H312.416C312.097 32.3363 311.775 32.3631 311.481 32.3631V33.2986L313.032 33.2986Z" fill="white"/>
<path d="M315.464 35.8659H317.096L317.871 33.0046C318.139 31.9889 319.074 31.2658 320.063 31.2658C321.025 31.2658 321.374 31.8285 321.053 32.9511L320.277 35.8659H321.909L322.818 32.47C323.192 31.0266 322.47 30.1699 320.866 30.1699C319.823 30.1699 318.994 30.5441 318.272 31.2926L318.459 30.3036H316.829C316.669 31.1856 316.562 31.7216 316.507 31.9354L315.464 35.8659Z" fill="white"/>
<path d="M323.353 35.8665H324.958L325.759 32.8714L327.926 35.8665H330.144L327.684 32.6843L331 30.3041H328.942L325.866 32.5239L327.096 27.8984H325.492L323.353 35.8665Z" fill="white"/>
<path d="M26.078 181L23.491 176.892L22.282 178.322V181H20.566V171.926H22.282V174.695V176.398H22.347L23.634 174.695L25.883 171.926H27.859L24.7 175.709L28.119 181H26.078ZM31.0096 181H29.3456V174.214H31.0096V175.618H31.0746C31.1353 175.375 31.2349 175.15 31.3736 174.942C31.5209 174.725 31.7159 174.552 31.9586 174.422C32.2099 174.283 32.5133 174.214 32.8686 174.214H33.2326V175.787H32.7126C32.3399 175.787 32.0236 175.826 31.7636 175.904C31.5123 175.973 31.3216 176.086 31.1916 176.242C31.0703 176.389 31.0096 176.589 31.0096 176.84V181ZM35.4811 173.226C35.1431 173.226 34.8961 173.148 34.7401 172.992C34.5841 172.827 34.5061 172.628 34.5061 172.394V172.134C34.5061 171.891 34.5841 171.692 34.7401 171.536C34.8961 171.38 35.1431 171.302 35.4811 171.302C35.8191 171.302 36.0661 171.38 36.2221 171.536C36.3781 171.692 36.4561 171.891 36.4561 172.134V172.394C36.4561 172.628 36.3781 172.827 36.2221 172.992C36.0661 173.148 35.8191 173.226 35.4811 173.226ZM34.6491 181V174.214H36.3131V181H34.6491ZM40.6522 181.156C40.0022 181.156 39.4562 181.048 39.0142 180.831C38.5722 180.606 38.1822 180.298 37.8442 179.908L38.8582 178.92C39.1095 179.206 39.3825 179.431 39.6772 179.596C39.9805 179.761 40.3272 179.843 40.7172 179.843C41.1159 179.843 41.4019 179.774 41.5752 179.635C41.7572 179.496 41.8482 179.306 41.8482 179.063C41.8482 178.864 41.7832 178.708 41.6532 178.595C41.5319 178.474 41.3195 178.391 41.0162 178.348L40.3402 178.257C39.8549 178.196 39.4432 178.084 39.1052 177.919C38.7672 177.754 38.5115 177.529 38.3382 177.243C38.1649 176.957 38.0782 176.61 38.0782 176.203C38.0782 175.544 38.3122 175.024 38.7802 174.643C39.2569 174.253 39.8809 174.058 40.6522 174.058C41.0942 174.058 41.4712 174.101 41.7832 174.188C42.1039 174.266 42.3855 174.387 42.6282 174.552C42.8709 174.708 43.0962 174.899 43.3042 175.124L42.3292 176.099C42.1299 175.891 41.8915 175.718 41.6142 175.579C41.3369 175.44 41.0335 175.371 40.7042 175.371C40.3575 175.371 40.0975 175.436 39.9242 175.566C39.7595 175.687 39.6772 175.856 39.6772 176.073C39.6772 176.298 39.7422 176.472 39.8722 176.593C40.0109 176.706 40.2405 176.788 40.5612 176.84L41.2502 176.931C41.9955 177.035 42.5459 177.256 42.9012 177.594C43.2652 177.923 43.4472 178.37 43.4472 178.933C43.4472 179.366 43.3302 179.752 43.0962 180.09C42.8709 180.428 42.5459 180.692 42.1212 180.883C41.7052 181.065 41.2155 181.156 40.6522 181.156ZM45.1165 181V171.38H46.7805V175.345H46.8455C46.9842 174.981 47.2008 174.678 47.4955 174.435C47.7988 174.184 48.2148 174.058 48.7435 174.058C49.4368 174.058 49.9698 174.292 50.3425 174.76C50.7238 175.219 50.9145 175.869 50.9145 176.71V181H49.2505V176.879C49.2505 176.402 49.1638 176.043 48.9905 175.8C48.8172 175.549 48.5312 175.423 48.1325 175.423C47.9072 175.423 47.6905 175.466 47.4825 175.553C47.2745 175.631 47.1055 175.752 46.9755 175.917C46.8455 176.073 46.7805 176.272 46.7805 176.515V181H45.1165ZM54.6231 181H52.9591V174.214H54.6231V175.345H54.6881C54.8267 174.981 55.0434 174.678 55.3381 174.435C55.6414 174.184 56.0574 174.058 56.5861 174.058C57.2794 174.058 57.8124 174.292 58.1851 174.76C58.5664 175.219 58.7571 175.869 58.7571 176.71V181H57.0931V176.879C57.0931 176.402 57.0064 176.043 56.8331 175.8C56.6597 175.549 56.3737 175.423 55.9751 175.423C55.7497 175.423 55.5331 175.466 55.3251 175.553C55.1171 175.631 54.9481 175.752 54.8181 175.917C54.6881 176.073 54.6231 176.272 54.6231 176.515V181ZM66.7166 181H65.7936C65.5423 181 65.317 180.944 65.1176 180.831C64.927 180.71 64.7753 180.536 64.6626 180.311C64.5586 180.086 64.5066 179.821 64.5066 179.518V179.375L64.9226 179.83H64.4546C64.342 180.263 64.108 180.593 63.7526 180.818C63.406 181.043 62.9813 181.156 62.4786 181.156C61.7853 181.156 61.2523 180.974 60.8796 180.61C60.507 180.237 60.3206 179.752 60.3206 179.154C60.3206 178.686 60.4333 178.3 60.6586 177.997C60.8926 177.694 61.2263 177.464 61.6596 177.308C62.093 177.152 62.613 177.074 63.2196 177.074H64.3766V176.58C64.3766 176.207 64.277 175.917 64.0776 175.709C63.8783 175.492 63.5576 175.384 63.1156 175.384C62.7256 175.384 62.4093 175.471 62.1666 175.644C61.9326 175.809 61.7333 176.008 61.5686 176.242L60.5806 175.358C60.832 174.968 61.1656 174.656 61.5816 174.422C61.9976 174.179 62.548 174.058 63.2326 174.058C64.1426 174.058 64.836 174.27 65.3126 174.695C65.798 175.111 66.0406 175.705 66.0406 176.476V179.674H66.7166V181ZM64.3766 178.075H63.3106C62.8773 178.075 62.5523 178.149 62.3356 178.296C62.119 178.435 62.0106 178.638 62.0106 178.907V179.128C62.0106 179.397 62.1016 179.6 62.2836 179.739C62.4656 179.878 62.717 179.947 63.0376 179.947C63.289 179.947 63.5143 179.912 63.7136 179.843C63.913 179.765 64.0733 179.652 64.1946 179.505C64.316 179.358 64.3766 179.18 64.3766 178.972V178.075ZM77.4246 181V179.596H77.3726C77.2946 180.038 77.0476 180.411 76.6316 180.714C76.2243 181.009 75.6783 181.156 74.9936 181.156C74.283 181.156 73.646 180.978 73.0826 180.623C72.5193 180.268 72.073 179.743 71.7436 179.05C71.4143 178.357 71.2496 177.503 71.2496 176.489C71.2496 175.475 71.4186 174.617 71.7566 173.915C72.0946 173.213 72.567 172.68 73.1736 172.316C73.7803 171.952 74.4866 171.77 75.2926 171.77C76.0986 171.77 76.792 171.952 77.3726 172.316C77.9533 172.671 78.404 173.178 78.7246 173.837L77.3336 174.656C77.169 174.257 76.922 173.932 76.5926 173.681C76.2633 173.421 75.83 173.291 75.2926 173.291C74.8506 173.291 74.4606 173.386 74.1226 173.577C73.7933 173.759 73.5333 174.032 73.3426 174.396C73.1606 174.751 73.0696 175.198 73.0696 175.735V177.191C73.0696 177.72 73.1606 178.166 73.3426 178.53C73.5333 178.894 73.7976 179.171 74.1356 179.362C74.4736 179.544 74.868 179.635 75.3186 179.635C75.674 179.635 75.999 179.579 76.2936 179.466C76.5883 179.345 76.8223 179.171 76.9956 178.946C77.169 178.712 77.2556 178.426 77.2556 178.088V177.503H75.4746V176.06H78.9066V181H77.4246ZM83.6815 181.156C83.0402 181.156 82.4812 181.013 82.0045 180.727C81.5365 180.432 81.1725 180.021 80.9125 179.492C80.6612 178.955 80.5355 178.322 80.5355 177.594C80.5355 176.866 80.6612 176.242 80.9125 175.722C81.1725 175.193 81.5365 174.786 82.0045 174.5C82.4812 174.205 83.0402 174.058 83.6815 174.058C84.3315 174.058 84.8905 174.205 85.3585 174.5C85.8352 174.786 86.1992 175.193 86.4505 175.722C86.7105 176.242 86.8405 176.866 86.8405 177.594C86.8405 178.322 86.7105 178.955 86.4505 179.492C86.1992 180.021 85.8352 180.432 85.3585 180.727C84.8905 181.013 84.3315 181.156 83.6815 181.156ZM83.6815 179.817C84.1235 179.817 84.4702 179.683 84.7215 179.414C84.9728 179.137 85.0985 178.742 85.0985 178.231V176.97C85.0985 176.459 84.9728 176.069 84.7215 175.8C84.4702 175.531 84.1235 175.397 83.6815 175.397C83.2568 175.397 82.9145 175.531 82.6545 175.8C82.4032 176.069 82.2775 176.459 82.2775 176.97V178.231C82.2775 178.742 82.4032 179.137 82.6545 179.414C82.9145 179.683 83.2568 179.817 83.6815 179.817ZM88.5157 183.6V174.214H90.1797V175.332H90.2317C90.353 174.942 90.5827 174.634 90.9207 174.409C91.2674 174.175 91.6617 174.058 92.1037 174.058C92.6844 174.058 93.1697 174.197 93.5597 174.474C93.9497 174.751 94.2487 175.154 94.4567 175.683C94.6647 176.203 94.7687 176.84 94.7687 177.594C94.7687 178.348 94.6647 178.994 94.4567 179.531C94.2487 180.06 93.9497 180.463 93.5597 180.74C93.1697 181.017 92.6844 181.156 92.1037 181.156C91.6617 181.156 91.2717 181.039 90.9337 180.805C90.5957 180.571 90.3617 180.259 90.2317 179.869H90.1797V183.6H88.5157ZM91.5707 179.778C92.004 179.778 92.355 179.635 92.6237 179.349C92.8924 179.054 93.0267 178.669 93.0267 178.192V177.022C93.0267 176.537 92.8924 176.151 92.6237 175.865C92.355 175.57 92.004 175.423 91.5707 175.423C91.3107 175.423 91.0724 175.471 90.8557 175.566C90.6477 175.653 90.483 175.778 90.3617 175.943C90.2404 176.108 90.1797 176.298 90.1797 176.515V178.673C90.1797 178.907 90.2404 179.106 90.3617 179.271C90.483 179.436 90.6477 179.561 90.8557 179.648C91.0724 179.735 91.3107 179.778 91.5707 179.778ZM102.426 181H101.503C101.251 181 101.026 180.944 100.827 180.831C100.636 180.71 100.484 180.536 100.372 180.311C100.268 180.086 100.216 179.821 100.216 179.518V179.375L100.632 179.83H100.164C100.051 180.263 99.817 180.593 99.4616 180.818C99.115 181.043 98.6903 181.156 98.1876 181.156C97.4943 181.156 96.9613 180.974 96.5886 180.61C96.216 180.237 96.0296 179.752 96.0296 179.154C96.0296 178.686 96.1423 178.3 96.3676 177.997C96.6016 177.694 96.9353 177.464 97.3686 177.308C97.802 177.152 98.322 177.074 98.9286 177.074H100.086V176.58C100.086 176.207 99.986 175.917 99.7866 175.709C99.5873 175.492 99.2666 175.384 98.8246 175.384C98.4346 175.384 98.1183 175.471 97.8756 175.644C97.6416 175.809 97.4423 176.008 97.2776 176.242L96.2896 175.358C96.541 174.968 96.8746 174.656 97.2906 174.422C97.7066 174.179 98.257 174.058 98.9416 174.058C99.8516 174.058 100.545 174.27 101.022 174.695C101.507 175.111 101.75 175.705 101.75 176.476V179.674H102.426V181ZM100.086 178.075H99.0196C98.5863 178.075 98.2613 178.149 98.0446 178.296C97.828 178.435 97.7196 178.638 97.7196 178.907V179.128C97.7196 179.397 97.8106 179.6 97.9926 179.739C98.1746 179.878 98.426 179.947 98.7466 179.947C98.998 179.947 99.2233 179.912 99.4226 179.843C99.622 179.765 99.7823 179.652 99.9036 179.505C100.025 179.358 100.086 179.18 100.086 178.972V178.075ZM106.533 181H105.636C105.073 181 104.653 180.857 104.375 180.571C104.107 180.285 103.972 179.882 103.972 179.362V171.38H105.636V179.674H106.533V181Z" fill="#D2D2D2"/>
<g filter="url(#filter0_ii_161_7584)">
<g clip-path="url(#clip3_161_7584)">
<rect x="20" y="106" width="40" height="30" rx="6" fill="url(#paint0_linear_161_7584)"/>
<path d="M20 106H27.8407C30.0498 106 31.8407 107.791 31.8407 110V112C31.8407 114.209 30.0498 116 27.8407 116H20V106Z" stroke="#0D0D0D" stroke-width="0.5"/>
<path d="M20 116H27.8407C30.0498 116 31.8407 117.791 31.8407 120V122C31.8407 124.209 30.0498 126 27.8407 126H20V116Z" stroke="#0D0D0D" stroke-width="0.5"/>
<path d="M20 126H27.8407C30.0498 126 31.8407 127.791 31.8407 130V132C31.8407 134.209 30.0498 136 27.8407 136H20V126Z" stroke="#0D0D0D" stroke-width="0.5"/>
<path d="M60.8408 136L53.0001 136C50.791 136 49.0001 134.209 49.0001 132L49.0001 130C49.0001 127.791 50.791 126 53.0001 126L60.8408 126L60.8408 136Z" stroke="#0D0D0D" stroke-width="0.5"/>
<path d="M60.8408 126L53.0001 126C50.791 126 49.0001 124.209 49.0001 122L49.0001 120C49.0001 117.791 50.791 116 53.0001 116L60.8408 116L60.8408 126Z" stroke="#0D0D0D" stroke-width="0.5"/>
<line x1="34.9976" y1="110.75" x2="45.0026" y2="110.75" stroke="#0D0D0D" stroke-width="0.5"/>
<line x1="34.9976" y1="132.229" x2="45.0026" y2="132.229" stroke="#0D0D0D" stroke-width="0.5"/>
</g>
</g>
</g>
<rect width="175" height="200" transform="translate(176)" fill="white"/>
<rect width="114" height="21" transform="translate(196 20)" fill="#F08D32"/>
<path d="M206.82 34V27.02H209.36C209.967 27.02 210.497 27.15 210.95 27.41C211.403 27.67 211.753 28.06 212 28.58C212.247 29.0933 212.37 29.7367 212.37 30.51C212.37 31.2833 212.247 31.93 212 32.45C211.753 32.9633 211.403 33.35 210.95 33.61C210.497 33.87 209.967 34 209.36 34H206.82ZM208.14 32.83H209.36C209.687 32.83 209.97 32.7667 210.21 32.64C210.45 32.5067 210.637 32.31 210.77 32.05C210.903 31.7833 210.97 31.4533 210.97 31.06V29.96C210.97 29.56 210.903 29.23 210.77 28.97C210.637 28.71 210.45 28.5167 210.21 28.39C209.97 28.2567 209.687 28.19 209.36 28.19H208.14V32.83ZM215.665 27.02H216.965V31.31C216.965 31.67 217.008 31.9733 217.095 32.22C217.188 32.46 217.335 32.6433 217.535 32.77C217.741 32.89 218.011 32.95 218.345 32.95C218.678 32.95 218.945 32.89 219.145 32.77C219.345 32.6433 219.491 32.46 219.585 32.22C219.678 31.9733 219.725 31.67 219.725 31.31V27.02H221.015V31.14C221.015 31.82 220.925 32.3833 220.745 32.83C220.571 33.27 220.288 33.5967 219.895 33.81C219.508 34.0167 218.988 34.12 218.335 34.12C217.681 34.12 217.158 34.0167 216.765 33.81C216.378 33.5967 216.098 33.27 215.925 32.83C215.751 32.3833 215.665 31.82 215.665 31.14V27.02ZM229.209 34H224.609V27.02H229.209V28.19H225.929V29.89H228.829V31.05H225.929V32.83H229.209V34ZM239.848 34H236.678V32.94H237.598V28.08H236.678V27.02H239.848V28.08H238.918V32.94H239.848V34ZM247.297 34L245.197 30.42L244.477 28.97H244.447V30.46V34H243.197V27.02H244.647L246.747 30.6L247.467 32.05H247.497V30.56V27.02H248.747V34H247.297ZM257.858 29.84H258.548C258.948 29.84 259.241 29.7567 259.428 29.59C259.621 29.4233 259.718 29.2167 259.718 28.97V28.9C259.718 28.6133 259.624 28.39 259.438 28.23C259.251 28.0633 259.001 27.98 258.688 27.98C258.381 27.98 258.108 28.0533 257.868 28.2C257.628 28.3467 257.424 28.5533 257.258 28.82L256.418 28.06C256.578 27.84 256.761 27.6433 256.968 27.47C257.181 27.2967 257.428 27.16 257.708 27.06C257.994 26.9533 258.334 26.9 258.728 26.9C259.194 26.9 259.604 26.9767 259.958 27.13C260.318 27.2767 260.598 27.4867 260.798 27.76C260.998 28.0267 261.098 28.3467 261.098 28.72C261.098 29.1667 260.964 29.5267 260.698 29.8C260.438 30.0667 260.124 30.2367 259.758 30.31V30.37C260.031 30.4167 260.278 30.5133 260.498 30.66C260.718 30.8 260.891 30.9867 261.018 31.22C261.151 31.4533 261.218 31.7367 261.218 32.07C261.218 32.4767 261.108 32.8367 260.888 33.15C260.674 33.4567 260.374 33.6967 259.988 33.87C259.608 34.0367 259.161 34.12 258.648 34.12C258.194 34.12 257.811 34.06 257.498 33.94C257.184 33.82 256.921 33.66 256.708 33.46C256.494 33.26 256.314 33.0467 256.168 32.82L257.138 32.08C257.298 32.36 257.491 32.59 257.718 32.77C257.951 32.95 258.261 33.04 258.648 33.04C259.034 33.04 259.331 32.9467 259.538 32.76C259.744 32.5667 259.848 32.31 259.848 31.99V31.92C259.848 31.6 259.734 31.3567 259.508 31.19C259.281 31.0233 258.961 30.94 258.548 30.94H257.858V29.84ZM269.107 34V27.02H271.647C272.254 27.02 272.784 27.15 273.237 27.41C273.69 27.67 274.04 28.06 274.287 28.58C274.534 29.0933 274.657 29.7367 274.657 30.51C274.657 31.2833 274.534 31.93 274.287 32.45C274.04 32.9633 273.69 33.35 273.237 33.61C272.784 33.87 272.254 34 271.647 34H269.107ZM270.427 32.83H271.647C271.974 32.83 272.257 32.7667 272.497 32.64C272.737 32.5067 272.924 32.31 273.057 32.05C273.19 31.7833 273.257 31.4533 273.257 31.06V29.96C273.257 29.56 273.19 29.23 273.057 28.97C272.924 28.71 272.737 28.5167 272.497 28.39C272.257 28.2567 271.974 28.19 271.647 28.19H270.427V32.83ZM283.399 34H282.029L281.469 32.22H278.989L278.439 34H277.099L279.439 27.02H281.079L283.399 34ZM281.149 31.09L280.579 29.33L280.249 28.22H280.199L279.869 29.33L279.309 31.09H281.149ZM288.773 34H287.443V31.26L285.053 27.02H286.533L288.143 29.97H288.163L289.733 27.02H291.173L288.773 31.25V34ZM295.881 34.12C295.287 34.12 294.777 34.0133 294.351 33.8C293.931 33.5867 293.574 33.3067 293.281 32.96L294.171 32.1C294.411 32.38 294.677 32.5933 294.971 32.74C295.271 32.8867 295.601 32.96 295.961 32.96C296.367 32.96 296.674 32.87 296.881 32.69C297.087 32.51 297.191 32.2733 297.191 31.98C297.191 31.82 297.161 31.6833 297.101 31.57C297.047 31.45 296.951 31.35 296.811 31.27C296.671 31.19 296.481 31.13 296.241 31.09L295.581 30.99C295.114 30.9167 294.724 30.7933 294.411 30.62C294.104 30.4467 293.874 30.22 293.721 29.94C293.567 29.66 293.491 29.3333 293.491 28.96C293.491 28.54 293.594 28.1767 293.801 27.87C294.007 27.5633 294.297 27.3267 294.671 27.16C295.051 26.9867 295.501 26.9 296.021 26.9C296.547 26.9 297.007 26.99 297.401 27.17C297.794 27.3433 298.131 27.5967 298.411 27.93L297.511 28.78C297.337 28.5667 297.127 28.3933 296.881 28.26C296.634 28.1267 296.324 28.06 295.951 28.06C295.577 28.06 295.294 28.1333 295.101 28.28C294.907 28.42 294.811 28.62 294.811 28.88C294.811 29.06 294.844 29.2067 294.911 29.32C294.977 29.4333 295.084 29.5233 295.231 29.59C295.377 29.65 295.561 29.7033 295.781 29.75L296.431 29.87C296.904 29.95 297.294 30.0767 297.601 30.25C297.907 30.4233 298.134 30.6467 298.281 30.92C298.427 31.1867 298.501 31.5133 298.501 31.9C298.501 32.34 298.397 32.7267 298.191 33.06C297.991 33.3933 297.694 33.6533 297.301 33.84C296.907 34.0267 296.434 34.12 295.881 34.12Z" fill="white"/>
<path d="M199.718 64.424V63.5H198.255V61.96L197.298 62.246V63.5H196.209V64.424H197.298V67.405C197.298 68.78 198.068 69.22 199.718 69V68.142C198.739 68.186 198.255 68.241 198.255 67.405V64.424H199.718ZM203.357 69.143C204.963 69.143 206.261 67.878 206.261 66.25C206.261 64.622 204.963 63.357 203.357 63.357C201.751 63.357 200.464 64.622 200.464 66.25C200.464 67.878 201.751 69.143 203.357 69.143ZM203.357 68.208C202.268 68.208 201.421 67.361 201.421 66.25C201.421 65.139 202.268 64.292 203.357 64.292C204.457 64.292 205.304 65.139 205.304 66.25C205.304 67.361 204.457 68.208 203.357 68.208ZM210.463 64.424V63.5H209V61.96L208.043 62.246V63.5H206.954V64.424H208.043V67.405C208.043 68.78 208.813 69.22 210.463 69V68.142C209.484 68.186 209 68.241 209 67.405V64.424H210.463ZM216.07 63.5V64.446C215.63 63.775 214.926 63.357 213.991 63.357C212.462 63.357 211.208 64.622 211.208 66.25C211.208 67.878 212.462 69.143 213.991 69.143C214.926 69.143 215.63 68.725 216.07 68.054V69H217.027V63.5H216.07ZM214.112 68.219C213.012 68.219 212.165 67.372 212.165 66.25C212.165 65.128 213.012 64.281 214.112 64.281C215.223 64.281 216.07 65.128 216.07 66.25C216.07 67.372 215.223 68.219 214.112 68.219ZM218.677 69H219.634V60.97H218.677V69ZM228.798 61.3V64.446C228.358 63.775 227.654 63.357 226.719 63.357C225.19 63.357 223.936 64.622 223.936 66.25C223.936 67.878 225.19 69.143 226.719 69.143C227.654 69.143 228.358 68.725 228.798 68.054V69H229.755V61.3H228.798ZM226.84 68.219C225.74 68.219 224.893 67.372 224.893 66.25C224.893 65.128 225.74 64.281 226.84 64.281C227.951 64.281 228.798 65.128 228.798 66.25C228.798 67.372 227.951 68.219 226.84 68.219ZM235.2 63.5V66.415C235.2 67.713 234.485 68.23 233.605 68.23C232.758 68.23 232.241 67.724 232.241 66.822V63.5H231.284V66.877C231.284 68.285 232.131 69.143 233.418 69.143C234.188 69.143 234.793 68.857 235.2 68.208V69H236.157V63.5H235.2ZM238.485 66.69H243.094C243.116 66.547 243.127 66.404 243.127 66.261C243.127 64.721 242.049 63.357 240.388 63.357C238.672 63.357 237.506 64.622 237.506 66.25C237.506 67.9 238.683 69.143 240.454 69.143C241.554 69.143 242.39 68.648 242.874 67.9L242.06 67.438C241.785 67.889 241.235 68.241 240.476 68.241C239.453 68.241 238.672 67.68 238.485 66.69ZM240.388 64.259C241.213 64.259 241.994 64.765 242.159 65.854H238.485C238.639 64.897 239.354 64.259 240.388 64.259Z" fill="#8A8A8A"/>
<path d="M200.9 97L197.3 90.72V89.24H198.5C198.98 89.24 199.4 89.1733 199.76 89.04C200.133 88.8933 200.44 88.6867 200.68 88.42C200.933 88.1533 201.107 87.8333 201.2 87.46H197.3V85.98H201.18C201.1 85.6333 200.96 85.3267 200.76 85.06C200.573 84.7933 200.32 84.5867 200 84.44C199.693 84.28 199.32 84.2 198.88 84.2H197.3V82.72H206.32V84.2H203.18C203.407 84.4533 203.593 84.7267 203.74 85.02C203.9 85.3133 204.007 85.6333 204.06 85.98H206.32V87.46H204.1C203.967 88.4467 203.587 89.22 202.96 89.78C202.333 90.3267 201.527 90.7 200.54 90.9L204.46 97H200.9ZM208.185 97H217.545V94.34H212.285L215.025 91.6C216.345 90.28 217.325 88.82 217.325 87.12C217.325 84.32 215.105 82.72 212.705 82.72C210.805 82.72 208.985 83.68 208.085 85.68L210.405 87.04C210.865 86.04 211.665 85.4 212.745 85.4C213.805 85.4 214.565 86.1 214.565 87.22C214.565 88.16 213.865 89.08 212.965 90.02L208.185 94.94V97ZM219.01 97H228.37V94.34H223.11L225.85 91.6C227.17 90.28 228.15 88.82 228.15 87.12C228.15 84.32 225.93 82.72 223.53 82.72C221.63 82.72 219.81 83.68 218.91 85.68L221.23 87.04C221.69 86.04 222.49 85.4 223.57 85.4C224.63 85.4 225.39 86.1 225.39 87.22C225.39 88.16 224.69 89.08 223.79 90.02L219.01 94.94V97ZM233.875 94.24H231.075L230.275 99.8H232.375L233.875 94.24ZM242.122 88.68L244.742 85.28V83H235.942V85.58H241.422L238.662 89.18L239.722 90.78H240.322C241.762 90.78 242.562 91.56 242.562 92.68C242.562 93.82 241.762 94.58 240.322 94.58C239.002 94.58 238.222 94 237.882 92.96L235.522 94.32C236.322 96.32 238.222 97.28 240.322 97.28C242.962 97.28 245.322 95.68 245.322 92.68C245.322 90.62 243.942 89.22 242.122 88.68ZM246.544 97H255.904V94.34H250.644L253.384 91.6C254.704 90.28 255.684 88.82 255.684 87.12C255.684 84.32 253.464 82.72 251.064 82.72C249.164 82.72 247.344 83.68 246.444 85.68L248.764 87.04C249.224 86.04 250.024 85.4 251.104 85.4C252.164 85.4 252.924 86.1 252.924 87.22C252.924 88.16 252.224 89.08 251.324 90.02L246.544 94.94V97ZM263.694 88.68L266.314 85.28V83H257.514V85.58H262.994L260.234 89.18L261.294 90.78H261.894C263.334 90.78 264.134 91.56 264.134 92.68C264.134 93.82 263.334 94.58 261.894 94.58C260.574 94.58 259.794 94 259.454 92.96L257.094 94.32C257.894 96.32 259.794 97.28 261.894 97.28C264.534 97.28 266.894 95.68 266.894 92.68C266.894 90.62 265.514 89.22 263.694 88.68ZM270.021 97.26C270.961 97.26 271.721 96.5 271.721 95.56C271.721 94.62 270.961 93.86 270.021 93.86C269.081 93.86 268.321 94.62 268.321 95.56C268.321 96.5 269.081 97.26 270.021 97.26ZM278.593 87.54L281.693 83H278.533L274.173 89.58C273.653 90.36 273.353 91.32 273.353 92.4C273.353 95.26 275.413 97.28 278.413 97.28C281.413 97.28 283.493 95.26 283.493 92.4C283.493 89.6 281.493 87.62 278.593 87.54ZM278.413 94.68C277.113 94.68 276.093 93.82 276.093 92.4C276.093 90.98 277.113 90.14 278.413 90.14C279.713 90.14 280.753 91 280.753 92.4C280.753 93.82 279.713 94.68 278.413 94.68ZM292.908 89.72C293.808 89.08 294.368 88.12 294.368 86.82C294.368 84.12 292.288 82.72 289.828 82.72C287.368 82.72 285.268 84.12 285.268 86.82C285.268 88.12 285.848 89.08 286.728 89.72C285.508 90.46 284.808 91.68 284.808 93.1C284.808 95.68 286.708 97.28 289.828 97.28C292.928 97.28 294.848 95.68 294.848 93.1C294.848 91.68 294.148 90.46 292.908 89.72ZM289.828 85.32C290.868 85.32 291.628 85.92 291.628 86.96C291.628 87.98 290.868 88.62 289.828 88.62C288.788 88.62 288.028 87.98 288.028 86.96C288.028 85.92 288.788 85.32 289.828 85.32ZM289.828 94.68C288.508 94.68 287.548 94 287.548 92.74C287.548 91.5 288.508 90.82 289.828 90.82C291.148 90.82 292.108 91.5 292.108 92.74C292.108 94 291.148 94.68 289.828 94.68Z" fill="#0D0D0D"/>
<rect width="135" height="48" transform="translate(196 132)" fill="#0D0D0D"/>
<path d="M241.738 150.9H238.345V160H240.139V157.01H241.738C243.493 157.01 244.845 155.658 244.845 153.955C244.845 152.252 243.493 150.9 241.738 150.9ZM241.738 155.333H240.139V152.577H241.738C242.505 152.577 243.064 153.162 243.064 153.955C243.064 154.735 242.505 155.333 241.738 155.333ZM250.643 153.5V154.267C250.175 153.682 249.473 153.318 248.524 153.318C246.795 153.318 245.365 154.813 245.365 156.75C245.365 158.687 246.795 160.182 248.524 160.182C249.473 160.182 250.175 159.818 250.643 159.233V160H252.32V153.5H250.643ZM248.836 158.583C247.809 158.583 247.042 157.842 247.042 156.75C247.042 155.658 247.809 154.917 248.836 154.917C249.876 154.917 250.643 155.658 250.643 156.75C250.643 157.842 249.876 158.583 248.836 158.583ZM258.279 153.5L256.836 157.868L255.146 153.5H253.313L255.978 159.792C255.666 160.663 255.198 161.053 254.275 161.04V162.6C255.926 162.691 257.031 161.872 257.707 160L260.073 153.5H258.279ZM268.135 153.318C267.264 153.318 266.588 153.643 266.198 154.228V153.5H264.521V160H266.198V156.49C266.198 155.359 266.809 154.878 267.628 154.878C268.382 154.878 268.915 155.333 268.915 156.217V160H270.592V156.009C270.592 154.28 269.513 153.318 268.135 153.318ZM275.318 160.182C277.229 160.182 278.763 158.687 278.763 156.75C278.763 154.813 277.229 153.318 275.318 153.318C273.407 153.318 271.886 154.813 271.886 156.75C271.886 158.687 273.407 160.182 275.318 160.182ZM275.318 158.544C274.33 158.544 273.563 157.803 273.563 156.75C273.563 155.697 274.33 154.956 275.318 154.956C276.319 154.956 277.086 155.697 277.086 156.75C277.086 157.803 276.319 158.544 275.318 158.544ZM287.208 153.5L286.103 157.504L284.92 153.5H283.334L282.151 157.491L281.046 153.5H279.265L281.332 160H282.931L284.127 156.061L285.323 160H286.922L288.989 153.5H287.208Z" fill="white"/>
</g>
<defs>
<filter id="filter0_ii_161_7584" x="20" y="106" width="40" height="30" filterUnits="userSpaceOnUse" color-interpolation-filters="sRGB">
<feFlood flood-opacity="0" result="BackgroundImageFix"/>
<feBlend mode="normal" in="SourceGraphic" in2="BackgroundImageFix" result="shape"/>
<feColorMatrix in="SourceAlpha" type="matrix" values="0 0 0 0 0 0 0 0 0 0 0 0 0 0 0 0 0 0 127 0" result="hardAlpha"/>
<feOffset dx="0.5" dy="0.5"/>
<feComposite in2="hardAlpha" operator="arithmetic" k2="-1" k3="1"/>
<feColorMatrix type="matrix" values="0 0 0 0 0.160784 0 0 0 0 0.14902 0 0 0 0 0.152941 0 0 0 1 0"/>
<feBlend mode="normal" in2="shape" result="effect1_innerShadow_161_7584"/>
<feColorMatrix in="SourceAlpha" type="matrix" values="0 0 0 0 0 0 0 0 0 0 0 0 0 0 0 0 0 0 127 0" result="hardAlpha"/>
<feOffset dx="-0.5" dy="-0.5"/>
<feComposite in2="hardAlpha" operator="arithmetic" k2="-1" k3="1"/>
<feColorMatrix type="matrix" values="0 0 0 0 0.160784 0 0 0 0 0.14902 0 0 0 0 0.152941 0 0 0 0.44 0"/>
<feBlend mode="normal" in2="effect1_innerShadow_161_7584" result="effect2_innerShadow_161_7584"/>
</filter>
<linearGradient id="paint0_linear_161_7584" x1="20.5042" y1="109.109" x2="58.229" y2="134.259" gradientUnits="userSpaceOnUse">
<stop stop-color="#CACED2"/>
<stop offset="0.494666" stop-color="white"/>
<stop offset="1" stop-color="#C7CBCF"/>
</linearGradient>
<clipPath id="clip0_161_7584">
<rect width="351" height="200" fill="white"/>
</clipPath>
<clipPath id="clip1_161_7584">
<rect width="351" height="200" rx="5" fill="white"/>
</clipPath>
<clipPath id="clip2_161_7584">
<rect width="24.6394" height="8" fill="white" transform="translate(19.5 42.5)"/>
</clipPath>
<clipPath id="clip3_161_7584">
<rect x="20" y="106" width="40" height="30" rx="6" fill="white"/>
</clipPath>
</defs>
</svg>
